# Blender 3.2.2
# www.blender.org
v 0.000000 -1.000000 -0.472239
v 0.000000 -1.000000 0.472239
v -1.527593 -2.102552 -0.472239
v -1.527593 -2.102552 0.472239
v -0.951057 -0.309017 -0.472239
v -0.951057 -0.309017 0.472239
v -2.471698 0.803103 -0.472239
v -2.471698 0.803103 0.472239
v -0.587785 0.809017 -0.472239
v -0.587785 0.809017 0.472239
v 0.000000 2.598897 -0.472239
v 0.000000 2.598897 0.472239
v 0.587785 0.809017 -0.472239
v 0.587785 0.809017 0.472239
v 2.471698 0.803104 -0.472239
v 2.471698 0.803104 0.472239
v 0.951056 -0.309017 -0.472239
v 0.951056 -0.309017 0.472239
v 1.527593 -2.102552 -0.472239
v 1.527593 -2.102552 0.472239
vn 0.5852 -0.8109 -0.0000
vn -0.9520 0.3060 -0.0000
vn -0.5903 -0.8072 -0.0000
vn -0.0031 1.0000 -0.0000
vn -0.9501 0.3120 -0.0000
vn 0.9501 0.3120 -0.0000
vn 0.0031 1.0000 -0.0000
vn 0.5903 -0.8072 -0.0000
vn -0.0000 -0.0000 1.0000
vn 0.9520 0.3060 -0.0000
vn -0.5852 -0.8109 -0.0000
vn -0.0000 -0.0000 -1.0000
vt 1.000000 0.500000
vt -0.000000 0.500000
vt 0.750000 0.490000
vt 1.000000 1.000000
vt 0.250000 0.490000
vt -0.000000 1.000000
vt 0.900000 0.500000
vt 0.891068 0.444164
vt 0.900000 1.000000
vt 0.391068 0.444164
vt 0.800000 0.500000
vt 0.978254 0.324164
vt 0.800000 1.000000
vt 0.478254 0.324164
vt 0.700000 0.500000
vt 0.978254 0.175836
vt 0.700000 1.000000
vt 0.478254 0.175836
vt 0.600000 0.500000
vt 0.891068 0.055836
vt 0.600000 1.000000
vt 0.391068 0.055836
vt 0.500000 0.500000
vt 0.750000 0.010000
vt 0.500000 1.000000
vt 0.250000 0.010000
vt 0.400000 0.500000
vt 0.608932 0.055836
vt 0.400000 1.000000
vt 0.108932 0.055836
vt 0.300000 0.500000
vt 0.521746 0.175836
vt 0.300000 1.000000
vt 0.021746 0.175836
vt 0.200000 0.500000
vt 0.521746 0.324164
vt 0.021746 0.324164
vt 0.200000 1.000000
vt 0.100000 0.500000
vt 0.608932 0.444164
vt 0.108932 0.444164
vt 0.100000 1.000000
s 0
usemtl Main
f 2/4/1 3/7/1 1/1/1
f 4/9/2 5/11/2 3/7/2
f 6/13/3 7/15/3 5/11/3
f 8/17/4 9/19/4 7/15/4
f 10/21/5 11/23/5 9/19/5
f 12/25/6 13/27/6 11/23/6
f 14/29/7 15/31/7 13/27/7
f 16/33/8 17/35/8 15/31/8
f 18/37/9 10/22/9 6/14/9
f 18/38/10 19/39/10 17/35/10
f 20/42/11 1/2/11 19/39/11
f 1/3/12 9/20/12 17/36/12
f 2/4/1 4/9/1 3/7/1
f 4/9/2 6/13/2 5/11/2
f 6/13/3 8/17/3 7/15/3
f 8/17/4 10/21/4 9/19/4
f 10/21/5 12/25/5 11/23/5
f 12/25/6 14/29/6 13/27/6
f 14/29/7 16/33/7 15/31/7
f 16/33/8 18/38/8 17/35/8
f 6/14/9 4/10/9 2/5/9
f 2/5/9 20/41/9 18/37/9
f 18/37/9 16/34/9 14/30/9
f 14/30/9 12/26/9 10/22/9
f 10/22/9 8/18/9 6/14/9
f 6/14/9 2/5/9 18/37/9
f 18/37/9 14/30/9 10/22/9
f 18/38/10 20/42/10 19/39/10
f 20/42/11 2/6/11 1/2/11
f 1/3/12 3/8/12 5/12/12
f 5/12/12 7/16/12 9/20/12
f 9/20/12 11/24/12 13/28/12
f 13/28/12 15/32/12 17/36/12
f 17/36/12 19/40/12 1/3/12
f 1/3/12 5/12/12 9/20/12
f 9/20/12 13/28/12 17/36/12
