# Blender 3.2.2
# www.blender.org
o Plane
v 2.682207 3.044572 -0.591933
v 2.013875 2.931553 -0.591933
v 2.550351 2.639951 -0.591933
v 2.070384 2.526932 -0.688695
v 2.380823 2.206712 -0.591933
v 1.900856 2.093693 -0.688695
v 2.738716 1.829983 -0.591933
v 2.108057 1.679292 -0.688695
v 2.983590 1.453254 -0.591933
v 2.183403 1.246053 -0.591933
v 1.486454 2.780862 -0.591933
v 1.542964 2.376240 -0.688695
v 1.373436 1.943002 -0.688695
v 1.580637 1.528600 -0.688695
v 1.825510 1.151871 -0.664074
v 2.352931 0.793978 -0.591933
v 1.863183 0.812815 -0.591933
v 1.072052 2.592497 -0.591933
v 1.128562 2.187876 -0.688695
v 0.959034 1.754637 -0.688695
v 1.166235 1.340236 -0.676292
v 1.343297 0.895695 -0.591933
v 0.692708 2.370123 -0.591933
v 0.566085 1.926258 -0.688695
v 0.579689 1.532263 -0.688695
v 0.786890 1.144023 -0.591933
v 0.343710 1.926258 -0.591933
v 0.383476 1.571505 -0.591933
v 0.496494 2.160829 -0.591933
v 0.551434 1.300993 -0.591933
v 2.682207 3.044572 0.575352
v 2.013875 2.931553 0.575352
v 2.550351 2.639951 0.575352
v 2.070384 2.526932 0.697877
v 2.380823 2.206712 0.575352
v 1.900856 2.093694 0.697877
v 2.738716 1.829983 0.575352
v 2.108057 1.679292 0.697877
v 2.983590 1.453254 0.575352
v 2.183403 1.246054 0.598502
v 1.486454 2.780862 0.575352
v 1.542964 2.376240 0.697877
v 1.373436 1.943002 0.697877
v 1.580637 1.528600 0.697877
v 1.825510 1.151871 0.660827
v 2.352931 0.793979 0.697878
v 1.863183 0.812815 0.575352
v 1.128562 2.187876 0.697877
v 0.959034 1.754637 0.697877
v 1.166235 1.340236 0.697877
v 1.343297 0.895695 0.575352
v 1.072052 2.592497 0.575352
v 0.692708 2.370123 0.575352
v 0.566085 1.926258 0.697877
v 0.579689 1.532263 0.697877
v 0.786890 1.144023 0.575352
v 0.383476 1.571505 0.575352
v 0.343710 1.926258 0.575352
v 0.496494 2.160829 0.575352
v 0.551434 1.300993 0.575352
v 1.486454 2.780862 0.004591
v 0.496494 2.160829 0.004591
v 2.550351 2.639951 0.004591
v 2.380823 2.206712 0.004591
v 2.013875 2.931553 0.004591
v 1.863183 0.812815 0.004591
v 2.352931 0.793979 0.004591
v 2.738716 1.829983 0.004591
v 2.349475 1.453254 0.004591
v 2.183403 1.246053 0.004591
v 0.383476 1.571505 0.004591
v 2.429827 2.749132 0.004591
v 0.551434 1.300993 0.004591
v 0.343710 1.926258 0.004591
v 1.072052 2.592497 0.004591
v 0.692708 2.370123 0.004591
v 1.343297 0.895695 0.004591
v 0.786890 1.144023 0.004591
v 1.486454 2.780862 -0.342052
v 0.496494 2.160829 -0.342052
v 2.380823 2.206712 -0.342052
v 2.013875 2.931553 -0.342052
v 1.863183 0.812815 -0.342052
v 2.738716 1.829983 -0.342052
v 2.183403 1.246053 -0.342052
v 0.343710 1.926258 -0.342052
v 1.343297 0.895695 -0.342052
v 2.550351 2.639951 -0.342052
v 2.352931 0.793979 -0.342052
v 2.860344 1.461139 -0.476285
v 0.383476 1.571505 -0.342052
v 2.489023 3.044572 -0.342052
v 0.551434 1.300993 -0.342052
v 1.072052 2.592497 -0.342052
v 0.692708 2.370123 -0.342052
v 0.786890 1.144023 -0.342052
v 2.550351 2.639951 0.351234
v 2.352931 0.793979 0.351234
v 2.817980 1.453254 0.351235
v 0.383476 1.571505 0.351234
v 2.358915 3.032472 0.258396
v 0.551434 1.300993 0.351234
v 1.072052 2.592497 0.351234
v 0.692708 2.370123 0.351234
v 0.786890 1.144023 0.351234
v 1.486454 2.780862 0.351234
v 0.496494 2.160829 0.351234
v 2.380823 2.206712 0.351234
v 2.013875 2.931553 0.351234
v 1.863183 0.812815 0.351234
v 2.738716 1.829983 0.351234
v 2.183403 1.246053 0.351234
v 0.343710 1.926258 0.351234
v 1.343297 0.895695 0.351234
v 2.429827 2.610928 0.004591
vn 0.1349 0.2482 -0.9593
vn 0.2160 -0.0845 -0.9727
vn 0.1768 0.0884 -0.9803
vn 0.1915 -0.1821 -0.9645
vn -0.0000 -0.0000 -1.0000
vn 0.2380 -0.1721 -0.9559
vn -0.0639 0.2237 -0.9726
vn 0.2389 -0.1766 -0.9548
vn -0.0244 -0.0122 -0.9996
vn -0.0992 0.2183 -0.9708
vn -0.0845 -0.1196 -0.9892
vn 0.0136 -0.0231 -0.9996
vn -0.1255 0.2141 -0.9687
vn -0.2339 -0.3508 -0.9068
vn -0.3039 0.2849 -0.9091
vn -0.4447 -0.0154 -0.8955
vn 0.1669 0.3070 0.9370
vn 0.2692 -0.1053 0.9573
vn 0.1547 0.1470 0.9770
vn 0.0248 0.0161 0.9996
vn -0.0000 -0.0000 1.0000
vn 0.2151 -0.1826 0.9594
vn -0.0796 0.2787 0.9571
vn -0.2364 0.1232 0.9638
vn -0.1235 0.2718 0.9544
vn -0.1161 -0.3548 0.9277
vn -0.1397 0.3003 0.9436
vn -0.2814 -0.4222 0.8617
vn -0.4604 0.2999 0.8355
vn -0.5322 -0.0184 0.8464
vn -0.4138 0.9104 -0.0000
vn -0.8379 0.5458 -0.0000
vn 0.7295 -0.6839 -0.0000
vn 0.9312 -0.3644 -0.0000
vn 0.4076 0.9132 -0.0000
vn -0.2747 0.9615 -0.0000
vn 0.1574 0.9875 -0.0000
vn -0.0384 -0.9993 -0.0000
vn 0.7250 0.6887 -0.0000
vn 0.5057 -0.8627 -0.0000
vn 0.3104 -0.9506 -0.0000
vn 0.9363 0.3511 -0.0000
vn -0.9938 -0.1114 -0.0000
vn -0.8496 -0.5275 -0.0000
vn 0.7127 0.4633 -0.5267
vn 0.9508 -0.3098 -0.0000
vn 0.5547 0.8321 -0.0000
vn -0.1653 0.9775 0.1313
vn 0.0337 0.2116 0.9768
vn 0.0999 0.2238 0.9695
vn 0.1404 0.3147 -0.9388
vn 0.0396 0.2484 -0.9679
vn -0.1816 0.7635 0.6197
vn 0.5547 0.8320 -0.0000
vn 0.6714 0.7411 -0.0000
vn 0.6852 -0.0387 0.7273
vn 0.7803 -0.6254 -0.0000
vn 0.7250 0.6888 -0.0000
vn 0.3028 -0.9530 -0.0000
vn 0.6368 0.4139 0.6504
vn 0.9887 0.1499 -0.0000
vn -0.1654 0.9779 -0.1278
vn 0.2970 0.6773 -0.6731
vn 0.5067 -0.5236 -0.6849
vn -0.0914 -0.1561 0.9835
vn 0.1232 0.1171 -0.9855
vn 0.0157 -0.0550 -0.9984
vn 0.0111 -0.0244 -0.9996
vn 0.0470 -0.1681 -0.9846
vn -0.0702 -0.2764 -0.9585
vn -0.1127 0.2422 -0.9637
vn -0.4693 -0.2914 -0.8335
vn -0.3862 0.2515 -0.8875
vn -0.3986 -0.0447 -0.9160
vn 0.2213 0.1106 0.9689
vn 0.2288 -0.1797 0.9567
vn 0.0236 -0.0826 0.9963
vn 0.2222 -0.2151 0.9510
vn -0.1561 0.2662 0.9512
vn -0.5461 -0.3391 0.7660
vn -0.3661 0.3432 0.8650
vn -0.4819 -0.0540 0.8746
vn 0.2418 -0.9537 -0.1787
vn 0.9786 0.2059 -0.0000
vn 0.6869 0.1678 -0.7071
vn -0.2807 0.9598 -0.0000
vn 0.4016 0.9158 -0.0000
vn 0.9479 0.1437 0.2843
vn 0.6955 -0.7186 -0.0000
vn 0.3462 -0.8690 0.3536
vn 0.2378 -0.9184 0.3161
vn 0.9497 0.3132 -0.0000
vn 0.7661 -0.2496 0.5923
vn -0.2314 0.9729 -0.0000
vn 0.8995 0.3941 -0.1886
vn 0.2862 -0.8766 -0.3868
vn 0.1028 -0.2261 0.9687
vt 1.000000 1.000000
vt 0.000000 1.000000
vt 1.000000 0.000000
vt 0.000000 0.000000
vt 1.000000 0.000000
vt 0.000000 0.000000
vt 1.000000 0.000000
vt 0.000000 0.000000
vt 1.000000 0.000000
vt 0.000000 0.000000
vt 0.000000 1.000000
vt 0.000000 0.000000
vt 0.000000 0.000000
vt 0.000000 0.000000
vt 0.000000 0.000000
vt 0.000000 0.000000
vt 0.000000 0.000000
vt 0.000000 1.000000
vt 0.000000 0.000000
vt 0.000000 0.000000
vt 0.000000 0.000000
vt 0.000000 0.000000
vt 0.000000 0.000000
vt 0.000000 1.000000
vt 0.000000 0.000000
vt 0.000000 0.000000
vt 0.000000 0.000000
vt 0.000000 0.000000
vt 0.000000 0.000000
vt 0.000000 0.000000
vt 0.000000 0.000000
vt 0.000000 1.000000
vt 0.000000 0.000000
vt 1.000000 1.000000
vt 0.000000 1.000000
vt 1.000000 0.000000
vt 0.000000 0.000000
vt 1.000000 0.000000
vt 0.000000 0.000000
vt 1.000000 0.000000
vt 0.000000 0.000000
vt 1.000000 0.000000
vt 0.000000 0.000000
vt 0.000000 1.000000
vt 0.000000 0.000000
vt 0.000000 0.000000
vt 0.000000 0.000000
vt 0.000000 0.000000
vt 0.000000 0.000000
vt 0.000000 0.000000
vt 0.000000 0.000000
vt 0.000000 0.000000
vt 0.000000 0.000000
vt 0.000000 0.000000
vt 0.000000 1.000000
vt 0.000000 0.000000
vt 0.000000 1.000000
vt 0.000000 0.000000
vt 0.000000 0.000000
vt 0.000000 0.000000
vt 0.000000 0.000000
vt 0.000000 0.000000
vt 0.000000 0.000000
vt 0.000000 0.000000
vt 0.000000 1.000000
vt 0.000000 0.000000
vt 0.000000 1.000000
vt 0.000000 0.000000
vt 0.000000 1.000000
vt 1.000000 0.000000
vt 1.000000 0.000000
vt 0.000000 1.000000
vt 0.000000 0.000000
vt 0.000000 0.000000
vt 1.000000 0.000000
vt 1.000000 0.000000
vt 0.000000 0.000000
vt 0.000000 0.000000
vt 1.000000 1.000000
vt 0.000000 0.000000
vt 0.000000 0.000000
vt 0.000000 0.000000
vt 0.000000 1.000000
vt 0.000000 0.000000
vt 0.000000 0.000000
vt 0.000000 0.000000
vt 0.000000 1.000000
vt 0.000000 1.000000
vt 0.000000 0.000000
vt 1.000000 0.000000
vt 0.000000 1.000000
vt 0.000000 0.000000
vt 1.000000 0.000000
vt 0.000000 0.000000
vt 0.000000 0.000000
vt 0.000000 0.000000
vt 1.000000 0.000000
vt 0.000000 0.000000
vt 1.000000 0.000000
vt 0.000000 0.000000
vt 1.000000 1.000000
vt 0.000000 0.000000
vt 0.000000 1.000000
vt 0.000000 0.000000
vt 0.000000 0.000000
vt 0.000000 0.000000
vt 1.000000 0.000000
vt 0.000000 0.000000
vt 1.000000 0.000000
vt 0.000000 0.000000
vt 1.000000 1.000000
vt 0.000000 0.000000
vt 0.000000 0.000000
vt 0.000000 1.000000
vt 0.000000 0.000000
vt 0.000000 0.000000
vt 0.000000 1.000000
vt 0.000000 1.000000
vt 0.000000 0.000000
vt 1.000000 0.000000
vt 0.000000 1.000000
vt 0.000000 0.000000
vt 1.000000 0.000000
vt 0.000000 0.000000
vt 0.000000 0.000000
vt 0.000000 0.000000
s 0
f 2/2/1 3/3/1 4/4/1
f 5/5/2 4/4/2 3/3/2
f 5/5/3 8/8/3 6/6/3
f 7/7/4 10/10/4 8/8/4
f 14/14/5 6/6/5 8/8/5
f 15/15/6 8/8/6 10/10/6
f 6/6/5 12/12/5 4/4/5
f 4/4/7 11/11/7 2/2/7
f 10/10/8 17/17/8 15/15/8
f 21/22/9 13/13/9 14/14/9
f 12/12/10 18/18/10 11/11/10
f 22/23/11 14/14/11 15/15/11
f 13/13/5 19/20/5 12/12/5
f 21/22/12 25/27/12 20/21/12
f 19/20/13 23/24/13 18/18/13
f 20/21/5 24/26/5 19/20/5
f 30/33/14 25/27/14 26/28/14
f 24/26/15 29/32/15 23/24/15
f 28/30/16 24/26/16 25/27/16
f 33/36/17 32/35/17 34/37/17
f 34/37/18 35/38/18 33/36/18
f 35/38/19 38/41/19 37/40/19
f 37/40/20 40/43/20 39/42/20
f 36/39/21 44/47/21 38/41/21
f 38/41/22 45/48/22 40/43/22
f 36/39/21 42/45/21 43/46/21
f 34/37/23 41/44/23 42/45/23
f 40/43/24 47/50/24 46/49/24
f 43/46/21 50/53/21 44/47/21
f 42/45/25 52/55/25 48/51/25
f 43/46/21 48/51/21 49/52/21
f 50/53/26 55/60/26 56/61/26
f 48/51/27 53/57/27 54/59/27
f 49/52/21 54/59/21 55/60/21
f 55/60/28 60/66/28 56/61/28
f 54/59/29 59/65/29 58/63/29
f 54/59/30 57/62/30 55/60/30
f 106/117/31 52/55/31 41/44/31
f 107/118/32 58/63/32 59/65/32
f 107/119/33 53/58/33 59/64/33
f 97/107/34 35/38/34 108/120/34
f 105/116/35 51/54/35 114/126/35
f 109/121/36 41/44/36 32/35/36
f 114/126/37 47/50/37 110/122/37
f 98/108/38 47/50/38 110/122/38
f 111/123/39 35/38/39 37/40/39
f 103/113/40 53/58/40 104/115/40
f 99/109/41 40/43/41 112/124/41
f 98/108/42 40/43/42 46/49/42
f 113/125/43 57/62/43 58/63/43
f 102/112/44 57/62/44 100/110/44
f 99/109/45 37/40/45 39/42/45
f 97/107/46 31/34/46 33/36/46
f 105/116/47 60/66/47 56/61/47
f 101/111/48 32/35/48 31/34/48
f 15/15/49 22/23/49 17/17/49
f 22/23/50 21/22/50 26/28/50
f 51/54/51 56/61/51 50/53/51
f 51/54/52 45/48/52 47/50/52
f 82/91/53 72/79/53 92/101/53
f 93/102/54 78/86/54 96/106/54
f 88/97/55 72/79/55 63/70/55
f 84/93/56 69/76/56 90/99/56
f 93/102/44 71/78/44 91/100/44
f 86/95/43 71/78/43 74/81/43
f 85/94/42 67/74/42 89/98/42
f 85/94/57 69/76/57 70/77/57
f 94/104/40 76/84/40 95/105/40
f 84/93/39 64/71/39 68/75/39
f 89/98/38 66/73/38 83/92/38
f 83/92/37 77/85/37 66/73/37
f 79/87/36 65/72/36 82/91/36
f 87/96/35 78/86/35 77/85/35
f 88/97/34 64/71/34 81/90/34
f 95/105/33 62/68/33 80/89/33
f 80/88/32 74/81/32 62/69/32
f 94/103/31 61/67/31 79/87/31
f 18/18/31 79/87/31 11/11/31
f 27/29/32 80/88/32 29/32/32
f 23/25/33 80/89/33 29/31/33
f 3/3/34 81/90/34 5/5/34
f 26/28/35 87/96/35 22/23/35
f 11/11/36 82/91/36 2/2/36
f 22/23/37 83/92/37 17/17/37
f 16/16/38 83/92/38 17/17/38
f 7/7/58 81/90/58 84/93/58
f 18/19/40 95/105/40 23/25/40
f 10/10/59 90/99/59 85/94/59
f 10/10/42 89/98/42 16/16/42
f 28/30/43 86/95/43 27/29/43
f 30/33/44 91/100/44 28/30/44
f 7/7/60 90/99/60 9/9/60
f 3/3/61 92/101/61 88/97/61
f 26/28/47 93/102/47 96/106/47
f 2/2/62 92/101/62 1/1/62
f 65/72/63 101/111/63 72/79/63
f 73/80/54 105/116/54 78/86/54
f 72/79/55 97/107/55 63/70/55
f 68/75/64 99/109/64 69/76/64
f 73/80/44 100/110/44 71/78/44
f 71/78/43 113/125/43 74/81/43
f 70/77/42 98/108/42 67/74/42
f 69/76/57 112/124/57 70/77/57
f 75/82/40 104/115/40 76/84/40
f 68/75/39 108/120/39 111/123/39
f 67/74/38 110/122/38 66/73/38
f 77/85/37 110/122/37 66/73/37
f 65/72/36 106/117/36 109/121/36
f 78/86/35 114/126/35 77/85/35
f 63/70/34 108/120/34 64/71/34
f 76/84/33 107/119/33 62/68/33
f 62/69/32 113/125/32 107/118/32
f 75/83/31 106/117/31 61/67/31
f 44/47/65 51/54/65 45/48/65
f 2/2/5 1/1/5 3/3/5
f 5/5/2 6/6/2 4/4/2
f 5/5/66 7/7/66 8/8/66
f 7/7/5 9/9/5 10/10/5
f 14/14/5 13/13/5 6/6/5
f 15/15/67 14/14/67 8/8/67
f 6/6/5 13/13/5 12/12/5
f 4/4/7 12/12/7 11/11/7
f 10/10/5 16/16/5 17/17/5
f 21/22/68 20/21/68 13/13/68
f 12/12/10 19/20/10 18/18/10
f 22/23/69 21/22/69 14/14/69
f 13/13/5 20/21/5 19/20/5
f 21/22/70 26/28/70 25/27/70
f 19/20/71 24/26/71 23/24/71
f 20/21/5 25/27/5 24/26/5
f 30/33/72 28/30/72 25/27/72
f 24/26/73 27/29/73 29/32/73
f 28/30/74 27/29/74 24/26/74
f 33/36/21 31/34/21 32/35/21
f 34/37/18 36/39/18 35/38/18
f 35/38/75 36/39/75 38/41/75
f 37/40/76 38/41/76 40/43/76
f 36/39/21 43/46/21 44/47/21
f 38/41/77 44/47/77 45/48/77
f 36/39/21 34/37/21 42/45/21
f 34/37/23 32/35/23 41/44/23
f 40/43/78 45/48/78 47/50/78
f 43/46/21 49/52/21 50/53/21
f 42/45/25 41/44/25 52/55/25
f 43/46/21 42/45/21 48/51/21
f 50/53/21 49/52/21 55/60/21
f 48/51/79 52/55/79 53/57/79
f 49/52/21 48/51/21 54/59/21
f 55/60/80 57/62/80 60/66/80
f 54/59/81 53/57/81 59/65/81
f 54/59/82 58/63/82 57/62/82
f 106/117/31 103/114/31 52/55/31
f 107/118/32 113/125/32 58/63/32
f 107/119/33 104/115/33 53/58/33
f 97/107/34 33/36/34 35/38/34
f 105/116/35 56/61/35 51/54/35
f 109/121/36 106/117/36 41/44/36
f 114/126/37 51/54/37 47/50/37
f 98/108/38 46/49/38 47/50/38
f 111/123/39 108/120/39 35/38/39
f 103/113/40 52/56/40 53/58/40
f 99/109/83 39/42/83 40/43/83
f 98/108/42 112/124/42 40/43/42
f 113/125/43 100/110/43 57/62/43
f 102/112/44 60/66/44 57/62/44
f 99/109/84 111/123/84 37/40/84
f 97/107/85 101/111/85 31/34/85
f 105/116/47 102/112/47 60/66/47
f 101/111/86 109/121/86 32/35/86
f 82/91/87 65/72/87 72/79/87
f 93/102/47 73/80/47 78/86/47
f 88/97/88 92/101/88 72/79/88
f 84/93/89 68/75/89 69/76/89
f 93/102/44 73/80/44 71/78/44
f 86/95/43 91/100/43 71/78/43
f 85/94/42 70/77/42 67/74/42
f 85/94/90 90/99/90 69/76/90
f 94/104/40 75/82/40 76/84/40
f 84/93/39 81/90/39 64/71/39
f 89/98/38 67/74/38 66/73/38
f 83/92/37 87/96/37 77/85/37
f 79/87/36 61/67/36 65/72/36
f 87/96/35 96/106/35 78/86/35
f 88/97/34 63/70/34 64/71/34
f 95/105/33 76/84/33 62/68/33
f 80/88/32 86/95/32 74/81/32
f 94/103/31 75/83/31 61/67/31
f 18/18/31 94/103/31 79/87/31
f 27/29/32 86/95/32 80/88/32
f 23/25/33 95/105/33 80/89/33
f 3/3/34 88/97/34 81/90/34
f 26/28/35 96/106/35 87/96/35
f 11/11/36 79/87/36 82/91/36
f 22/23/37 87/96/37 83/92/37
f 16/16/38 89/98/38 83/92/38
f 7/7/39 5/5/39 81/90/39
f 18/19/40 94/104/40 95/105/40
f 10/10/91 9/9/91 90/99/91
f 10/10/42 85/94/42 89/98/42
f 28/30/43 91/100/43 86/95/43
f 30/33/44 93/102/44 91/100/44
f 7/7/92 84/93/92 90/99/92
f 3/3/93 1/1/93 92/101/93
f 26/28/54 30/33/54 93/102/54
f 2/2/94 82/91/94 92/101/94
f 65/72/86 109/121/86 101/111/86
f 73/80/47 102/112/47 105/116/47
f 72/79/95 101/111/95 97/107/95
f 68/75/84 111/123/84 99/109/84
f 73/80/44 102/112/44 100/110/44
f 71/78/43 100/110/43 113/125/43
f 70/77/42 112/124/42 98/108/42
f 69/76/96 99/109/96 112/124/96
f 75/82/40 103/113/40 104/115/40
f 68/75/39 64/71/39 108/120/39
f 67/74/38 98/108/38 110/122/38
f 77/85/37 114/126/37 110/122/37
f 65/72/36 61/67/36 106/117/36
f 78/86/35 105/116/35 114/126/35
f 63/70/34 97/107/34 108/120/34
f 76/84/33 104/115/33 107/119/33
f 62/69/32 74/81/32 113/125/32
f 75/83/31 103/114/31 106/117/31
f 44/47/97 50/53/97 51/54/97
